<?xml version="1.0" encoding="UTF-8"?><!DOCTYPE svg PUBLIC "-//W3C//DTD SVG 1.1//EN" "http://www.w3.org/Graphics/SVG/1.1/DTD/svg11.dtd"><svg xmlns="http://www.w3.org/2000/svg" xmlns:xlink="http://www.w3.org/1999/xlink"><symbol id="download" viewBox="0 0 27 32"><g><path d="M25 32H2a2 2 0 01-2-2V9a2 2 0 012-2h5.5a1.5 1.5 0 010 3H3v19h21V10h-4.5a1.5 1.5 0 010-3H25a2 2 0 012 2v21a2 2 0 01-2 2zm-5-15.5a1.51 1.51 0 01-.44 1.06l-5 5a1.5 1.5 0 01-2.12 0l-5-5a1.5 1.5 0 112.12-2.12L12 17.88V1.5a1.5 1.5 0 013 0v16.38l2.44-2.44A1.5 1.5 0 0120 16.5z"/></g></symbol><symbol id="phone" viewBox="0 0 32 32"><g><path d="M23.51 32a7.34 7.34 0 01-2.45-.42A33.7 33.7 0 01.36 10.33a7.35 7.35 0 012.53-8.11L4.47 1a5 5 0 017.47 1.7l2.67 5.2A3.52 3.52 0 0115 9.49a3.48 3.48 0 01-.93 2.37l-.55.6a2 2 0 00-.3 2.21 9.45 9.45 0 004.09 4.09 2 2 0 002.22-.3l.6-.55a3.56 3.56 0 014-.54L29.28 20a5 5 0 011.28 8l-1.81 1.83A7.44 7.44 0 0123.51 32zM7.5 3a2 2 0 00-1.21.4L4.71 4.61a4.33 4.33 0 00-1.5 4.79 30.69 30.69 0 0018.85 19.35 4.44 4.44 0 004.56-1l1.8-1.82a2 2 0 00-.51-3.19L22.72 20a.53.53 0 00-.56.08l-.6.55a5.05 5.05 0 01-5.62.75 12.3 12.3 0 01-5.38-5.37 5 5 0 01.75-5.62l.55-.6a.51.51 0 00.14-.3.43.43 0 00-.06-.22L9.28 4.09A2 2 0 007.5 3z"/></g></symbol></svg>